<svg enable-background="new 0 0 36 36" height="512" viewBox="0 0 36 36" width="512" xmlns="http://www.w3.org/2000/svg"><path d="m27.417 3.914c-6.915.129-11.732-3.365-15.064-3.302s-10.296 2.109-10.009 17.44 9.744 17.404 13.41 17.336c17.163-.321 23.911-31.703 11.663-31.474z" fill="#efefef"/><path d="m29.25 11.75v14.5c0 1.1-.9 2-2 2h-18.5c-1.1 0-2-.9-2-2v-14.5z" fill="#f3f3f1"/><path d="m29.25 9.75v2h-22.5v-2c0-1.1.9-2 2-2h18.5c1.1 0 2 .9 2 2z" fill="#2fdf84"/><path d="m9 26.25v-14.5h-2.25v14.5c0 1.1.9 2 2 2h2.25c-1.1 0-2-.9-2-2z" fill="#d5dbe1"/><path d="m11 7.75h-2.25c-1.1 0-2 .9-2 2v2h2.25v-2c0-1.1.9-2 2-2z" fill="#00b871"/><circle cx="18" cy="17.5" fill="#2fdf84" r="1.75"/><path d="m20.25 21.75h-4.5c-1.105 0-2 .895-2 2v1.5h8.5v-1.5c0-1.105-.895-2-2-2z" fill="#2fdf84"/><g fill="#a4afc1"><path d="m30.533 4.394h2v1h-2z" transform="matrix(.707 -.707 .707 .707 5.776 23.731)"/><path d="m26.967 3.717h1v2h-1z" transform="matrix(.707 -.707 .707 .707 4.71 20.804)"/><path d="m31.033 7.783h1v2h-1z" transform="matrix(.707 -.707 .707 .707 3.025 24.87)"/></g><path d="m18 20c-1.378 0-2.5-1.121-2.5-2.5s1.122-2.5 2.5-2.5c1.379 0 2.5 1.121 2.5 2.5s-1.121 2.5-2.5 2.5zm0-3.5c-.551 0-1 .448-1 1s.449 1 1 1 1-.448 1-1-.449-1-1-1z"/><path d="m23 25.25h-1.5v-1.5c0-.689-.561-1.25-1.25-1.25h-4.5c-.689 0-1.25.561-1.25 1.25v1.5h-1.5v-1.5c0-1.517 1.233-2.75 2.75-2.75h4.5c1.517 0 2.75 1.233 2.75 2.75z"/><path d="m27.25 29h-18.5c-1.517 0-2.75-1.233-2.75-2.75v-16.5c0-1.517 1.233-2.75 2.75-2.75h18.5c1.517 0 2.75 1.233 2.75 2.75v16.5c0 1.517-1.233 2.75-2.75 2.75zm-18.5-20.5c-.689 0-1.25.561-1.25 1.25v16.5c0 .689.561 1.25 1.25 1.25h18.5c.689 0 1.25-.561 1.25-1.25v-16.5c0-.689-.561-1.25-1.25-1.25z"/><path d="m6.75 11h22.5v1.5h-22.5z"/><path d="m2 27.5h32v1.5h-32z"/></svg>